# xmcd
#
# Track frame offsets:
#	150
#	19738
#	33094
#	50053
#	69020
#	86181
#	107048
#	119498
#	136693
#	151002
#	168597
#	184363
#	202477
#	217430
#	233747
#	249214
#	260724
#	274391
#	293101
#	309363
#	324798
#	339916
#
# Disc length: 4750 seconds
#
# Revision: 0
# Processed by: cddbd v1.5.2PL0 Copyright (c) Steve Scherf et al.
# Submitted via: audiograbber 1.83.01
#
DISCID=45128c16
DTITLE=Various Artist - CDX Volume 670 (November 5, 2018)
DYEAR=2018
DGENRE=Country
TTITLE0=Ryan Sims - Get Away
TTITLE1=Lynn Easterly - Listen to My Bad Girl
TTITLE2=Wilson Brothers Band - Loving You Loving on Me
TTITLE3=Bryan Wayne (featuring Big and Rich and friends) - Simplify
TTITLE4=Mallary Hope - Christmas Is All About You
TTITLE5=Dylan Scott - The Christmas Song
TTITLE6=Dylan Scott - Winter Wonderland
TTITLE7=Vince Vance and the Valiants - All I Want for Christmas Is You
TTITLE8=Mike Aiken - Almost Christmas
TTITLE9=Joseph James - Christmas in My Hometown
TTITLE10=Sherry Lynn - Christmas on My Mind
TTITLE11=Vince Vance and the Valiants - Christmas State of Mind
TTITLE12=Bubba T (featuring Natalie Rose) - Frosty the Snowman
TTITLE13=Jayne Carter - Hallelujah Emmanuel
TTITLE14=Lucas Hoge - Hey Christmas
TTITLE15=Jes Marie - Jingle Bell Rock
TTITLE16=Lefroy - Macaroni Necklace
TTITLE17=Phil Vassar and Lonestar - Not so Silent Night
TTITLE18=Carly Burruss - Sweetest Time of All
TTITLE19=Greg Sterling - That Better Be Santa Claus
TTITLE20=T. J. Sparks - What Would Christmas Be
TTITLE21=Jeff Bates - When Christmas Gets a Hold of Me
EXTD=
EXTT0=
EXTT1=
EXTT2=
EXTT3=
EXTT4=
EXTT5=
EXTT6=
EXTT7=
EXTT8=
EXTT9=
EXTT10=
EXTT11=
EXTT12=
EXTT13=
EXTT14=
EXTT15=
EXTT16=
EXTT17=
EXTT18=
EXTT19=
EXTT20=
EXTT21=
PLAYORDER=
